<svg width="16" height="13" viewBox="0 0 16 13" fill="none" xmlns="http://www.w3.org/2000/svg">
<path d="M1.5 0.5H14.5C14.9167 0.520833 15.2708 0.666667 15.5625 0.9375C15.8333 1.22917 15.9792 1.58333 16 2C15.9792 2.5 15.7813 2.89583 15.4063 3.1875L8.59375 8.3125C8.19792 8.5625 7.80208 8.5625 7.40625 8.3125L0.59375 3.1875C0.21875 2.89583 0.0208333 2.5 0 2C0.0208333 1.58333 0.166667 1.22917 0.4375 0.9375C0.729167 0.666667 1.08333 0.520833 1.5 0.5ZM0 4L6.8125 9.09375C7.16667 9.36458 7.5625 9.5 8 9.5C8.4375 9.5 8.83333 9.36458 9.1875 9.09375L16 4V10.5C15.9792 11.0625 15.7813 11.5313 15.4063 11.9063C15.0313 12.2813 14.5625 12.4792 14 12.5H2C1.4375 12.4792 0.96875 12.2813 0.59375 11.9063C0.21875 11.5313 0.0208333 11.0625 0 10.5V4Z" fill="#51565C"/>
</svg>
