<svg aria-hidden="true" xmlns="http://www.w3.org/2000/svg" xmlns:xlink="http://www.w3.org/1999/xlink"><symbol viewBox="0 0 24 25" id="close" xmlns="http://www.w3.org/2000/svg">
<rect x="2" y="13" width="1" height="20" transform="rotate(-90 2 13)"/>
</symbol><symbol viewBox="0 0 16 13" id="letter" xmlns="http://www.w3.org/2000/svg">
<path d="M1.5 0.5H14.5C14.9167 0.520833 15.2708 0.666667 15.5625 0.9375C15.8333 1.22917 15.9792 1.58333 16 2C15.9792 2.5 15.7813 2.89583 15.4063 3.1875L8.59375 8.3125C8.19792 8.5625 7.80208 8.5625 7.40625 8.3125L0.59375 3.1875C0.21875 2.89583 0.0208333 2.5 0 2C0.0208333 1.58333 0.166667 1.22917 0.4375 0.9375C0.729167 0.666667 1.08333 0.520833 1.5 0.5ZM0 4L6.8125 9.09375C7.16667 9.36458 7.5625 9.5 8 9.5C8.4375 9.5 8.83333 9.36458 9.1875 9.09375L16 4V10.5C15.9792 11.0625 15.7813 11.5313 15.4063 11.9063C15.0313 12.2813 14.5625 12.4792 14 12.5H2C1.4375 12.4792 0.96875 12.2813 0.59375 11.9063C0.21875 11.5313 0.0208333 11.0625 0 10.5V4Z"/>
</symbol><symbol viewBox="0 0 24 25" id="open" xmlns="http://www.w3.org/2000/svg">
<rect x="11.5" y="2.5" width="1" height="20"/>
<rect x="2" y="13" width="1" height="20" transform="rotate(-90 2 13)"/>
</symbol><symbol viewBox="0 0 14 14" id="user" xmlns="http://www.w3.org/2000/svg">
<path d="M6.99997 6.8659C6.37417 6.8659 5.80202 6.71392 5.2835 6.40996C4.76498 6.106 4.3448 5.68582 4.02296 5.14943C3.719 4.61303 3.56702 4.04087 3.56702 3.43295C3.56702 2.82503 3.719 2.25287 4.02296 1.71648C4.3448 1.18008 4.76498 0.759898 5.2835 0.455939C5.80202 0.15198 6.37417 0 6.99997 0C7.62577 0 8.19793 0.15198 8.71645 0.455939C9.23497 0.759898 9.65514 1.18008 9.97698 1.71648C10.2809 2.25287 10.4329 2.82503 10.4329 3.43295C10.4329 4.04087 10.2809 4.61303 9.97698 5.14943C9.65514 5.68582 9.23497 6.106 8.71645 6.40996C8.19793 6.71392 7.62577 6.8659 6.99997 6.8659ZM5.76626 8.15326H8.23369C9.57469 8.18902 10.7011 8.6539 11.613 9.54789C12.507 10.4598 12.9719 11.5862 13.0076 12.9272C13.0076 13.1596 12.9272 13.3474 12.7663 13.4904C12.6232 13.6513 12.4355 13.7318 12.203 13.7318H1.79691C1.56447 13.7318 1.37673 13.6513 1.23369 13.4904C1.07277 13.3474 0.99231 13.1596 0.99231 12.9272C1.02807 11.5862 1.49295 10.4598 2.38695 9.54789C3.29882 8.6539 4.42526 8.18902 5.76626 8.15326Z"/>
<path d="M0.99231 13.3295H13.0076V14H0.99231V13.3295Z"/>
</symbol></svg>