<svg width="59" height="60" viewBox="0 0 59 60" fill="none" xmlns="http://www.w3.org/2000/svg">
<g clip-path="url(#clip0_1_30)">
<path d="M3.62119 38.583H8.29234C12.7398 38.583 16.3431 42.21 16.3431 46.68C16.346 51.153 12.7398 54.78 8.29234 54.78H6.82179C6.74722 54.78 6.68458 54.72 6.68458 54.642V51.723C6.68458 51.648 6.74424 51.585 6.82179 51.585H8.29234C10.9859 51.585 13.1693 49.389 13.1693 46.68C13.1693 43.971 10.9859 41.775 8.29234 41.775H3.72559C3.43625 41.775 3.20359 42.009 3.20359 42.3V59.256C3.20359 59.331 3.14393 59.394 3.06638 59.394H0.164059C0.0894878 59.394 0.0268478 59.334 0.0268478 59.256V42.195C0.0298307 40.2 1.63759 38.583 3.62119 38.583ZM48.2775 39.45L38.3506 59.772C38.3058 59.862 38.3714 59.97 38.4729 59.97H41.3334C41.578 59.97 41.7987 59.832 41.9061 59.61L51.8331 39.288C51.8778 39.198 51.8122 39.09 51.7108 39.09H48.8502C48.6056 39.093 48.3849 39.231 48.2775 39.45ZM41.924 47.211L37.9956 39.168C37.9717 39.12 37.924 39.09 37.8733 39.09H34.7025C34.6011 39.09 34.5355 39.195 34.5802 39.288L40.2029 50.799C40.2536 50.901 40.3968 50.901 40.4475 50.799L41.924 47.775C42.0105 47.598 42.0105 47.388 41.924 47.211ZM17.5302 46.68C17.5302 51.153 21.1365 54.777 25.581 54.777H26.7801C26.8546 54.777 26.9173 54.717 26.9173 54.639V51.72C26.9173 51.645 26.8576 51.582 26.7801 51.582H25.3334C22.7771 51.582 20.704 49.497 20.704 46.926C20.704 44.079 22.9978 41.772 25.8285 41.772C28.6593 41.772 30.9531 44.079 30.9531 46.926V54.636C30.9531 54.711 31.0127 54.774 31.0903 54.774H33.9926C34.0672 54.774 34.1298 54.714 34.1298 54.636V46.68C34.1298 42.207 30.5235 38.583 26.0791 38.583H25.581C21.1365 38.583 17.5302 42.207 17.5302 46.68Z" fill="#FFAB00"/>
<path d="M39.1022 21.507L58.7026 0.0300007L34.9441 17.328L26.9919 9.33H18.6816L19.4751 10.128L30.789 21.507L31.9404 22.671L34.9441 25.689L37.757 22.866L39.1022 21.507Z" fill="#FFAB00"/>
<path d="M39.9345 22.341L51.8629 34.338H43.5437L35.7764 26.526L39.9345 22.341ZM29.8972 22.383L18.0284 34.338H26.3446L34.0553 26.568L29.8972 22.383Z" fill="#292C2F"/>
<path d="M24.5519 17.475L22.3326 15.243L16.4534 9.333H8.13723H5.90904V9.33H0.0298309V26.229H5.90904V15.243H14.0135L20.3908 21.657L13.6615 28.422H0.0298309V34.338H7.77929H16.0955L21.9807 28.422L24.5459 25.836L28.707 21.654L24.5519 17.475Z" fill="#292C2F"/>
</g>
<defs>
<clipPath id="clip0_1_30">
<rect width="58.7324" height="60" fill="white"/>
</clipPath>
</defs>
</svg>
